<?xml version="1.0" encoding="UTF-8"?>
<!DOCTYPE svg PUBLIC "-//W3C//DTD SVG 1.1//EN" "http://www.w3.org/Graphics/SVG/1.1/DTD/svg11.dtd">
<!-- Creator: CorelDRAW 2020 (64-Bit) -->
<svg xmlns="http://www.w3.org/2000/svg" xml:space="preserve" width="210mm" height="297mm" version="1.1" style="shape-rendering:geometricPrecision; text-rendering:geometricPrecision; image-rendering:optimizeQuality; fill-rule:evenodd; clip-rule:evenodd"
viewBox="0 0 21000 29700"
 xmlns:xlink="http://www.w3.org/1999/xlink"
 xmlns:xodm="http://www.corel.com/coreldraw/odm/2003">
 <defs>
  <style type="text/css">
   <![CDATA[
    .fil1 {fill:#76C46E}
    .fil0 {fill:#E5BC88}
    .fil2 {fill:#E5BC88;fill-rule:nonzero}
   ]]>
  </style>
   <clipPath id="id0">
    <rect x="3969.09" y="3439.52" width="9144" height="9144"/>
   </clipPath>
 </defs>
 <g id="Слой_x0020_1">
  <metadata id="CorelCorpID_0Corel-Layer"/>
  <g style="clip-path:url(#id0)">
   <image id="LOGO.jpg" x="3969.09" y="3439.52" width="9144" height="9144" xlink:href="Logo_Images\Logo_ImgID1.png"/>
  </g>
  <path class="fil0" d="M-2341.88 6668.94c-221.3,36.32 -371.31,156.08 -457.3,297.94 -173.26,285.83 -67.56,724.45 -100.33,839.35 -6.44,22.56 -67.53,75.2 -88.98,97.08 -62.87,64.14 -174.29,139.48 -108.14,231.28 102.75,142.58 256.16,-111.36 327.71,-164.13 78.63,-57.98 544.61,69.05 846.63,-101.44 135.81,-76.66 273.34,-236.89 309.78,-443.92 12.98,-73.72 27.88,-675.41 -9.84,-722.34 -64.79,-50.07 -237.94,-47.22 -341.72,-47.17 -110.03,0.04 -276.34,-3.3 -377.81,13.35zm-1213.08 307.27c10.86,67.81 2.48,1355.12 2.44,1458.64 -0.08,168.06 26.18,177.28 189.46,177.81 124.11,0.39 248.43,0.7 372.54,0.29l1837.27 -0.07c164.08,-0.26 207.58,6.6 206.55,-169.56 -0.55,-94.89 -7.52,-1402.91 2.42,-1467.69 178.36,-16.47 393.89,42.31 430.23,-70.02 28.84,-89.2 -109.25,-189.08 -204.65,-285.31l-1380.61 -1379.63c-31.61,-31.11 -87.49,-104.64 -146.47,-107.34 -64.79,-2.96 -114.94,69.33 -145.8,99.21l-376.61 376.52c-322.31,309.64 -683.46,685.81 -1007.54,1007.58 -43.23,42.92 -79.7,80.03 -122.86,123.01 -32.42,32.28 -105.5,79.6 -87.37,158.8 28.56,124.71 244.88,56.07 431,77.76z"/>
  <path class="fil1" d="M-2692.36 7605.53c36.17,-30 78.99,-77.4 114.57,-112.92l232.95 -232.21c140.18,-139.6 258.33,31.41 156.96,131.31 -63.87,62.94 -335.85,325.5 -353.21,360.64 93.82,4.63 305.62,8.93 391.45,-9.87 224.7,-49.22 343.83,-239.41 344.96,-467.55 0.68,-136.6 -3.27,-274.6 0.24,-410.95 -303.14,13.05 -531.82,-49.38 -719.98,97.85 -69.69,54.53 -129.42,127.68 -157.87,248.53 -18.14,77.01 -16.67,310.2 -10.07,395.17z"/>
  <path class="fil2" d="M-502.24 9249.2l-89.18 246.31 176.08 0 -86.9 -246.31zm152.29 490.17l-36.71 -138.39 -233.97 0 -37.76 138.39 -125.02 0 198.12 -599.48 176.25 0 198.45 599.48 -139.36 0z"/>
  <polygon class="fil2" points="-948.5,9739.37 -1150.24,9449.5 -1150.24,9739.37 -1282.07,9739.37 -1282.07,9139.89 -1150.24,9139.89 -1150.24,9413.32 -949.5,9139.89 -804.7,9139.89 -1031.24,9425.85 -793.38,9739.37 "/>
  <path class="fil2" d="M-1510.89 8950.15c0,45.28 -18.41,80.56 -55.43,105.84 -37,25.11 -86.76,37.66 -149.66,37.66 -36.21,0 -67.15,-3.56 -92.44,-10.85 -25.28,-7.3 -45.91,-17.47 -61.89,-30.37 -15.97,-12.89 -27.71,-27.99 -34.99,-45.46 -7.27,-17.3 -10.92,-36.3 -10.92,-56.82l112.27 0c0,11.03 7.42,25.94 11.11,34.66 3.58,8.47 11.4,16.09 17.6,21.59 6.46,5.73 18.96,8.74 28.52,11.77 8.95,2.84 19.62,5.25 32.56,5.25 12.54,0 24.56,-1.2 34.05,-3.95 9.79,-2.84 19.51,-7.79 26.32,-12.97 6.25,-4.77 14.73,-13.45 19.8,-22.42 4.68,-8.28 10.83,-24.6 10.83,-33.93l112.27 0z"/>
  <polygon class="fil2" points="-1550.84,9739.37 -1550.84,9286 -1552.02,9286 -1832.24,9739.37 -1979.13,9739.37 -1979.13,9139.89 -1866.54,9139.89 -1866.54,9583.25 -1865.35,9583.25 -1584.56,9139.89 -1438.29,9139.89 -1438.29,9739.37 "/>
  <path class="fil2" d="M-2251.09 9442.45c0,-71.1 -11.28,-124.19 -33.66,-159.11 -22.36,-34.92 -59.16,-52.31 -110.54,-52.31 -25.71,0 -47.53,4.54 -65.65,13.62 -18.12,8.93 -32.92,22.24 -44.74,39.62 -11.65,17.54 -20.35,39 -25.71,64.68 -5.35,25.53 -8.13,54.82 -8.13,87.86 0,71.1 11.28,124.19 33.84,159.11 22.56,34.92 59.35,52.31 110.39,52.31 25.68,0 47.69,-4.55 65.81,-13.63 18.3,-8.92 33.28,-22.24 44.73,-39.62 11.66,-17.54 20.17,-38.99 25.52,-64.68 5.36,-25.53 8.14,-54.81 8.14,-87.85zm140.88 -5.64c0,54.5 -7.57,101.48 -22.55,140.95 -14.98,39.3 -35.5,71.72 -61.75,97.25 -26.26,25.37 -56.95,44.16 -92.08,56.37 -35.31,12.22 -72.85,18.33 -112.98,18.33 -93.36,0 -163.43,-26.15 -210.39,-78.62 -46.96,-52.46 -70.44,-128.73 -70.44,-228.64 0,-54.5 7.57,-101.48 22.55,-140.95 14.97,-39.46 35.5,-71.72 61.75,-97.25 26.26,-25.37 56.95,-44.16 92.08,-56.38 35.31,-12.21 73.03,-18.32 112.97,-18.32 93.36,0 163.43,26.15 210.4,78.46 46.95,52.3 70.44,128.57 70.44,228.8z"/>
  <path class="fil2" d="M-2894.13 9330.59c0,-13.43 -2.34,-25.67 -6.99,-36.58 -4.81,-11.03 -11.81,-20.46 -21.43,-28.18 -9.47,-7.71 -21.57,-13.69 -36.14,-17.82 -14.56,-4.12 -31.76,-6.24 -51.72,-6.24l-55.08 0 0 185.87 58.58 0c18.21,0 34.24,-2.25 48.22,-6.77 13.99,-4.53 25.8,-11.04 35.27,-19.56 9.62,-8.63 16.75,-18.87 21.86,-30.71 4.95,-11.97 7.43,-25.25 7.43,-40.01zm120.71 0.04c0,31.32 -5.12,60.13 -15.53,86.6 -10.25,26.31 -25.64,49.2 -45.98,68.44 -20.33,19.25 -44.55,28.48 -75.97,34.95 -31.88,6.56 -55.77,6.13 -95.79,6.13l-56.86 0 0 212.62 -122.77 0 0 -599.48 174.29 0c38.69,0 72.7,4.23 102.22,12.68 29.67,8.3 54.53,20.67 74.71,36.81 20.2,16.28 35.43,36.17 45.99,59.97 10.41,23.65 15.69,50.74 15.69,81.28z"/>
  <polygon class="fil2" points="-3445.77,9243.85 -3445.77,9749.37 -3568.6,9749.37 -3568.6,9243.85 -3733.36,9243.85 -3733.36,9139.89 -3281.01,9139.89 -3281.01,9243.85 "/>
  <path class="fil2" d="M-3801.07 9715.88c-28.29,10.8 -55.58,18.79 -82.05,24.12 -26.63,5.16 -54.09,7.83 -82.72,7.83 -45.77,0 -86.38,-6.42 -121.5,-19.11 -35.28,-12.68 -65.08,-31.48 -89.21,-56.69 -24.3,-25.06 -42.61,-56.22 -55.09,-93.34 -12.48,-37.11 -18.81,-80.34 -18.81,-129.67 0,-50.42 6.82,-95.37 20.48,-134.68 13.64,-39.31 33.12,-72.5 58.42,-99.59 25.46,-27.1 56.25,-47.77 92.37,-62.02 36.28,-14.25 77.06,-21.3 122.16,-21.3 14.65,0 28.44,0.78 41.11,2.76 13.7,2.15 24.79,3.85 36.62,7.58 12.79,4.04 23.26,7.52 36.19,12.33 12.1,4.51 39.97,17.2 53.61,21.43l-35.39 103.88c-26.3,-18.18 -31.6,-19.69 -56.4,-30.63 -23.3,-10.28 -46.19,-14.11 -66.66,-14.11 -30.13,0 -56.21,1.48 -77.65,11.71 -21.48,10.26 -39.11,24.58 -52.93,43.22 -13.64,18.48 -23.8,40.4 -30.29,66.09 -6.49,25.53 -9.82,53.56 -9.82,84.09 0,32.42 3.33,61.39 9.99,87.08 6.65,25.53 16.97,47.13 30.96,64.83 13.98,17.86 31.78,31.32 53.59,40.72 21.63,9.24 47.6,13.94 77.39,13.94 10.65,0 22.31,-0.94 34.79,-2.98 12.48,-2.03 25.13,-4.54 37.95,-7.83 12.98,-3.13 25.63,-7.04 38.11,-11.43 12.48,-4.39 24.13,-8.93 34.78,-13.47l0 105.24z"/>
  <polygon class="fil2" points="-3029.04,10548.12 -3170.06,10345.51 -3170.06,10548.12 -3262.2,10548.12 -3262.2,10129.09 -3170.06,10129.09 -3170.06,10320.22 -3029.74,10129.09 -2928.53,10129.09 -3086.88,10328.98 -2920.62,10548.12 "/>
  <polygon class="fil2" points="-2566.35,10548.12 -2566.35,10231.22 -2567.18,10231.22 -2763.04,10548.12 -2865.72,10548.12 -2865.72,10129.09 -2787.02,10129.09 -2787.02,10439 -2786.19,10439 -2589.92,10129.09 -2487.68,10129.09 -2487.68,10548.12 "/>
  <path class="fil2" d="M-2166.21 10262.39c0,-9.39 -1.63,-17.94 -4.88,-25.57 -3.37,-7.71 -8.26,-14.3 -14.98,-19.7 -6.62,-5.38 -15.08,-9.56 -25.26,-12.45 -10.18,-2.88 -22.2,-4.36 -36.15,-4.36l-38.5 0 0 129.92 40.94 0c12.73,0 23.94,-1.58 33.71,-4.74 9.78,-3.16 18.03,-7.71 24.65,-13.67 6.72,-6.03 11.71,-13.19 15.28,-21.46 3.46,-8.37 5.19,-17.65 5.19,-27.97zm84.38 0.03c0,21.89 -3.58,42.03 -10.86,60.53 -7.16,18.39 -17.92,34.39 -32.14,47.84 -14.21,13.45 -31.14,19.91 -53.1,24.43 -22.28,4.58 -38.98,4.28 -66.95,4.28l-39.75 0 0 148.62 -85.81 0 0 -419.03 121.82 0c27.05,0 50.82,2.96 71.45,8.87 20.74,5.8 38.12,14.45 52.22,25.73 14.12,11.38 24.77,25.28 32.15,41.92 7.28,16.53 10.97,35.46 10.97,56.81z"/>
  <path class="fil2" d="M-1723.27 10333.35c0,-49.7 -7.88,-86.81 -23.52,-111.21 -15.63,-24.41 -41.35,-36.57 -77.27,-36.57 -17.97,0 -33.22,3.18 -45.89,9.52 -12.66,6.24 -23.01,15.55 -31.27,27.7 -8.14,12.26 -14.22,27.26 -17.97,45.21 -3.74,17.84 -5.68,38.31 -5.68,61.41 0,49.7 7.88,86.81 23.65,111.21 15.77,24.41 41.49,36.57 77.16,36.57 17.95,0 33.34,-3.18 46,-9.53 12.79,-6.23 23.26,-15.55 31.27,-27.69 8.15,-12.26 14.1,-27.26 17.84,-45.21 3.74,-17.85 5.68,-38.31 5.68,-61.41zm98.48 -3.94c0,38.09 -5.29,70.93 -15.76,98.52 -10.48,27.47 -24.82,50.13 -43.17,67.98 -18.35,17.73 -39.8,30.86 -64.36,39.4 -24.68,8.54 -50.92,12.81 -78.97,12.81 -65.26,0 -114.23,-18.28 -147.06,-54.95 -32.82,-36.67 -49.23,-89.98 -49.23,-159.82 0,-38.09 5.29,-70.93 15.76,-98.52 10.46,-27.58 24.81,-50.13 43.16,-67.98 18.35,-17.73 39.81,-30.86 64.36,-39.4 24.68,-8.54 51.05,-12.81 78.97,-12.81 65.25,0 114.23,18.28 147.06,54.84 32.82,36.56 49.24,89.87 49.24,159.93z"/>
  <path class="fil2" d="M-1384.97 10483.87c13.45,0 25.29,-1.66 35.49,-4.84 10.18,-3.2 18.74,-7.72 25.66,-13.34 6.91,-5.74 12.06,-12.46 15.69,-20.28 3.51,-7.73 5.27,-15.99 5.27,-24.82 0,-18.29 -7.26,-32.61 -21.79,-42.87 -14.65,-10.37 -36.91,-15.55 -66.9,-15.55l-52.59 0 0 121.7 59.17 0zm67.35 -241.95c0,-8.06 -1.4,-15.22 -4.1,-21.72 -2.81,-6.39 -7.14,-11.91 -13.24,-16.43 -6.09,-4.52 -13.93,-8.04 -23.42,-10.47 -9.5,-2.53 -20.98,-3.75 -34.57,-3.75l-51.19 0 0 111.77 51.19 0c13.82,0 25.42,-1.54 34.92,-4.73 9.49,-3.09 17.33,-7.39 23.42,-12.89 6.1,-5.51 10.43,-11.81 13.01,-18.86 2.69,-7.16 3.98,-14.77 3.98,-22.92zm-210.17 306.77l0 -421.97 144.92 0c51.08,0 89.27,8.38 114.81,25.14 25.53,16.86 38.31,42.21 38.31,76.28 0,10.47 -1.29,20.83 -3.99,30.75 -2.57,10.03 -6.67,19.29 -12.18,27.67 -5.51,8.37 -12.3,15.76 -20.62,22.27 -8.2,6.38 -17.92,11.46 -29.17,15.1 11.25,1.76 21.91,5.18 31.98,10.25 10.19,5.07 19.1,11.57 26.71,19.62 7.62,8.16 13.71,17.64 18.17,28.66 4.44,10.91 6.67,23.15 6.67,36.7 0,43.11 -15.35,75.4 -45.92,97.13 -30.7,21.6 -74.98,32.4 -132.86,32.4l-136.83 0z"/>
 </g>
</svg>
