<?xml version="1.0" encoding="iso-8859-1"?>
<!-- Generator: Adobe Illustrator 19.0.0, SVG Export Plug-In . SVG Version: 6.00 Build 0)  -->
<svg version="1.1" id="Capa_1" xmlns="http://www.w3.org/2000/svg" xmlns:xlink="http://www.w3.org/1999/xlink" x="0px" y="0px"
	 viewBox="0 0 512 512" style="enable-background:new 0 0 512 512;" xml:space="preserve">
<path style="fill:#57565C;" d="M335.174,103.662c-0.779,0-1.572-0.119-2.354-0.369c-4.054-1.298-6.288-5.638-4.989-9.692
	l7.904-24.68c1.298-4.054,5.637-6.29,9.693-4.99c4.054,1.298,6.288,5.638,4.989,9.692l-7.904,24.68
	C341.466,101.576,338.435,103.662,335.174,103.662z"/>
<path style="fill:#FFCD00;" d="M441.78,241.963c0,8.88-0.771,17.853-2.374,26.816c-0.699,3.926-2.611,7.277-5.262,9.795
	c-0.781,0.761-1.624,1.439-2.518,2.035c-4.389,2.929-10.042,3.957-15.53,2.282l-30.342-9.713l-33.908-10.864l-114.552-36.683
	l-12.355-3.957l-28.234-9.045l-35.851-11.481c-5.519-1.809-9.559-5.961-11.44-10.936c-1.706-4.461-1.675-9.579,0.565-14.287
	c27.957-58.751,90.192-93.173,154.164-86.502c10.34,1.069,20.731,3.227,31.03,6.527C400.276,116.804,441.78,177.076,441.78,241.963z
	"/>
<path style="fill:#FFDA44;" d="M441.78,241.963c0,8.88-0.771,17.853-2.374,26.816c-0.699,3.926-2.611,7.277-5.262,9.795
	l-16.867-5.396l-33.908-10.864l-114.552-36.683l-12.355-3.957l-28.234-9.045l-35.851-11.481c-5.519-1.809-9.559-5.961-11.44-10.936
	c-1.706-4.461-1.675-9.579,0.565-14.287c23.321-49.007,70.499-81.085,122.641-86.502c10.34,1.069,20.731,3.227,31.03,6.527
	C400.276,116.804,441.78,177.076,441.78,241.963z"/>
<path style="fill:#DDB200;" d="M431.625,280.609c-4.389,2.929-10.042,3.957-15.53,2.282l-30.342-9.713l-33.908-10.864
	l-114.552-36.683l-12.355-3.957l-28.234-9.045l-35.851-11.481c-5.519-1.809-9.559-5.961-11.44-10.936
	c10.093-2.775,30.033-1.593,55.924,2.991c9.137,1.614,19.025,3.659,29.478,6.105c19.035,4.461,39.962,10.247,61.731,17.216
	c21.78,6.969,42.182,14.431,60.272,21.862c12.159,5.006,23.27,10.001,33.055,14.832c1.686,0.833,3.34,1.665,4.944,2.487
	C413.072,265.069,426.054,273.743,431.625,280.609z"/>
<path style="fill:#AB2300;" d="M385.753,273.178c1.49-6.743,2.857-13.393,4.122-19.96c-9.785-4.831-20.896-9.826-33.055-14.832
	c-18.09-7.431-38.492-14.893-60.272-21.862c-21.769-6.969-42.696-12.755-61.731-17.216c-10.453-2.446-20.341-4.492-29.478-6.105
	c-2.929,6.342-5.807,12.817-8.634,19.426L385.753,273.178z"/>
<path style="fill:#57565C;" d="M231.216,419.735c-0.81,0-1.633-0.128-2.444-0.4c-4.037-1.35-6.217-5.717-4.868-9.755l65.335-195.497
	c1.35-4.037,5.719-6.216,9.754-4.868c4.038,1.35,6.217,5.717,4.868,9.755l-65.335,195.497
	C237.448,417.695,234.442,419.735,231.216,419.735z"/>
<path style="fill:#FF3501;" d="M360.218,239.796c-18.916-7.902-40.511-15.853-63.669-23.271
	c-23.159-7.418-45.354-13.492-65.334-18.049C258.473,130.253,302.584,85.513,335.17,95.95
	C366.849,106.097,378.167,166.358,360.218,239.796z"/>
<path style="fill:#FFA733;" d="M441.204,440.725H45.582c0,0,46.633-55.523,197.816-55.523c8.932,0,17.494,0.193,25.696,0.562
	C399.916,391.566,441.204,440.725,441.204,440.725z"/>
<path style="fill:#FFB655;" d="M441.204,440.725H96.974c0,0,41.288-49.159,172.12-54.961
	C399.916,391.566,441.204,440.725,441.204,440.725z"/>
<path style="fill:#EE8700;" d="M504.291,448.44H7.709c-4.257,0-7.709-3.451-7.709-7.709s3.451-7.709,7.709-7.709h496.583
	c4.258,0,7.709,3.451,7.709,7.709S508.549,448.44,504.291,448.44z"/>
<g>
</g>
<g>
</g>
<g>
</g>
<g>
</g>
<g>
</g>
<g>
</g>
<g>
</g>
<g>
</g>
<g>
</g>
<g>
</g>
<g>
</g>
<g>
</g>
<g>
</g>
<g>
</g>
<g>
</g>
</svg>
